<svg width="21" height="21" viewBox="0 0 21 21" fill="none" xmlns="http://www.w3.org/2000/svg">
<path d="M11.5 2.03125C11.5 1.33984 10.9414 0.78125 10.25 0.78125C9.55859 0.78125 9 1.33984 9 2.03125V11.5117L6.13281 8.64453C5.64453 8.15625 4.85156 8.15625 4.36328 8.64453C3.875 9.13281 3.875 9.92578 4.36328 10.4141L9.36328 15.4141C9.85156 15.9023 10.6445 15.9023 11.1328 15.4141L16.1328 10.4141C16.6211 9.92578 16.6211 9.13281 16.1328 8.64453C15.6445 8.15625 14.8516 8.15625 14.3633 8.64453L11.5 11.5117V2.03125ZM2.75 14.5312C1.37109 14.5312 0.25 15.6523 0.25 17.0312V18.2812C0.25 19.6602 1.37109 20.7812 2.75 20.7812H17.75C19.1289 20.7812 20.25 19.6602 20.25 18.2812V17.0312C20.25 15.6523 19.1289 14.5312 17.75 14.5312H13.7852L12.0156 16.3008C11.0391 17.2773 9.45703 17.2773 8.48047 16.3008L6.71484 14.5312H2.75ZM17.125 16.7188C17.3736 16.7188 17.6121 16.8175 17.7879 16.9933C17.9637 17.1692 18.0625 17.4076 18.0625 17.6562C18.0625 17.9049 17.9637 18.1433 17.7879 18.3192C17.6121 18.495 17.3736 18.5938 17.125 18.5938C16.8764 18.5938 16.6379 18.495 16.4621 18.3192C16.2863 18.1433 16.1875 17.9049 16.1875 17.6562C16.1875 17.4076 16.2863 17.1692 16.4621 16.9933C16.6379 16.8175 16.8764 16.7188 17.125 16.7188Z" fill="#F8F9FA"/>
</svg>
